<?xml version="1.0" encoding="UTF-8" standalone="no"?>
<!-- Generator: Adobe Illustrator 15.0.2, SVG Export Plug-In . SVG Version: 6.00 Build 0)  -->

<svg
   xmlns:dc="http://purl.org/dc/elements/1.1/"
   xmlns:cc="http://creativecommons.org/ns#"
   xmlns:rdf="http://www.w3.org/1999/02/22-rdf-syntax-ns#"
   xmlns:svg="http://www.w3.org/2000/svg"
   xmlns="http://www.w3.org/2000/svg"
   xmlns:sodipodi="http://sodipodi.sourceforge.net/DTD/sodipodi-0.dtd"
   xmlns:inkscape="http://www.inkscape.org/namespaces/inkscape"
   version="1.1"
   id="Layer_1"
   x="0px"
   y="0px"
   width="3200px"
   height="800px"
   viewBox="0 0 3200 800"
   enable-background="new 0 0 3200 800"
   xml:space="preserve"
   inkscape:version="0.48.2 r9819"
   sodipodi:docname="bAtMaN.svg"><sodipodi:namedview
   pagecolor="#ffffff"
   bordercolor="#666666"
   borderopacity="1"
   objecttolerance="10"
   gridtolerance="10"
   guidetolerance="10"
   inkscape:pageopacity="0"
   inkscape:pageshadow="2"
   inkscape:window-width="1280"
   inkscape:window-height="968"
   id="namedview3298"
   showgrid="false"
   inkscape:zoom="0.57275649"
   inkscape:cx="917.02501"
   inkscape:cy="400"
   inkscape:window-x="-4"
   inkscape:window-y="-4"
   inkscape:window-maximized="1"
   inkscape:current-layer="Layer_1" /><metadata
   id="metadata3302"><rdf:RDF><cc:Work
       rdf:about=""><dc:format>image/svg+xml</dc:format><dc:type
         rdf:resource="http://purl.org/dc/dcmitype/StillImage" /></cc:Work></rdf:RDF></metadata><defs
   id="defs3300" />
<g
   id="g3196">
	<g
   id="g3309"><path
   id="path3198"
   d="M30.982,255.009   c135.655-7.799,298.007-1.118,443.938-3.344c-3.068,48.674,87.871,63.553,166.477,56.85c23.08-3.086,8.036-26.853,12.331-40.128   c1.266,24.365,95.319,31,86.321-3.344c16.888,7.561-4.045,35.635,12.332,43.473c81.809,6.908,175.35-6.951,172.643-56.85   c147.979,0,295.959,0,443.938,0c-99.366,28.078-222.719,58.971-191.139,147.142c-223.231-12.899-429.997,11.986-474.767,107.014   c-52.821-90.628-248.424-121.645-474.766-107.014C243.95,319.27,146.331,274.419,30.982,255.009z"
   stroke-miterlimit="10"
   stroke-width="5"
   stroke="#000000"
   fill="none" />
<path
   id="path3312"
   d="M 38.967523,254.606170 l 0.000000,1.873193 M 48.967523,258.320649 l 0.000000,-4.218928 M 58.967523,253.625775 l 0.000000,6.761281 M 68.967523,262.570020 l 0.000000,-9.321892 M 78.967523,252.870481 l 0.000000,12.103652 M 88.967523,267.541882 l 0.000000,-14.957413 M 98.967523,252.360890 l 0.000000,17.995720 M 108.967523,273.365273 l 0.000000,-21.227963 M 118.967523,251.913731 l 0.000000,24.784082 M 128.967523,280.221293 l 0.000000,-28.531141 M 138.967523,251.495596 l 0.000000,32.737545 M 148.967523,288.410615 l 0.000000,-36.986831 M 158.967523,251.351973 l 0.000000,41.849382 M 168.967523,298.525508 l 0.000000,-47.245347 M 178.967523,251.208350 l 0.000000,53.288535 M 188.967523,311.457260 l 0.000000,-60.320722 M 198.967523,251.126003 l 0.000000,68.475154 M 208.967523,329.664616 l 0.000000,-78.514451 M 218.967523,251.174326 l 0.000000,92.179974 M 228.967523,370.238676 l 0.000000,-119.040188 M 228.967523,394.433391 l 0.000000,4.339083 M 238.967523,398.248126 l 0.000000,-147.025477 M 248.967523,251.246811 l 0.000000,146.476966 M 258.967523,397.199429 l 0.000000,-145.884517 M 268.967523,251.383591 l 0.000000,145.291489 M 278.967523,396.369477 l 0.000000,-144.917206 M 288.967523,251.520951 l 0.000000,144.577766 M 298.967523,395.827957 l 0.000000,-144.238327 M 308.967523,251.658310 l 0.000000,143.898887 M 318.967523,395.487680 l 0.000000,-143.760690 M 328.967523,251.795669 l 0.000000,143.691050 M 338.967523,395.485758 l 0.000000,-143.621409 M 348.967523,251.933028 l 0.000000,143.551769 M 358.967523,395.697256 l 0.000000,-143.695549 M 368.967523,252.040110 l 0.000000,143.946920 M 378.967523,396.276805 l 0.000000,-144.219323 M 388.967523,252.074854 l 0.000000,144.491726 M 398.967523,397.054594 l 0.000000,-144.962368 M 408.967523,252.109597 l 0.000000,145.469784 M 418.967523,398.262273 l 0.000000,-146.135304 M 428.967523,252.048904 l 0.000000,146.920711 M 438.967523,399.836705 l 0.000000,-147.871345 M 448.967523,251.881816 l 0.000000,148.872367 M 458.967523,401.807200 l 0.000000,-150.008927 M 468.967523,251.714729 l 0.000000,151.242669 M 478.967523,404.207965 l 0.000000,-133.998293 M 488.967523,282.332699 l 0.000000,123.285070 M 498.967523,407.093501 l 0.000000,-117.775232 M 508.967523,294.247469 l 0.000000,114.533239 M 518.967523,410.569715 l 0.000000,-112.446136 M 528.967523,301.205361 l 0.000000,111.294711 M 538.967523,414.646758 l 0.000000,-111.012441 M 548.967523,305.510476 l 0.000000,111.408916 M 558.967523,419.398839 l 0.000000,-112.371853 M 568.967523,308.239088 l 0.000000,113.884596 M 578.967523,425.035343 l 0.000000,-115.965234 M 588.967523,309.607514 l 0.000000,118.564281 M 598.967523,431.676600 l 0.000000,-121.737627 M 608.967523,309.982005 l 0.000000,125.486451 M 618.967523,439.595208 l 0.000000,-129.838239 M 628.967523,309.352364 l 0.000000,134.765589 M 638.967523,449.116150 l 0.000000,-140.437478 M 648.967523,306.037555 l 0.000000,148.664966 M 658.967523,461.003361 l 0.000000,-183.712999 M 668.967523,282.950387 l 0.000000,185.275692 M 678.967523,476.665714 l 0.000000,-190.699859 M 688.967523,287.782120 l 0.000000,198.966170 M 698.967523,499.482170 l 0.000000,-210.854263 M 708.967523,288.538207 l 0.000000,206.732198 M 718.967523,481.931017 l 0.000000,-194.761786 M 728.967523,284.097279 l 0.000000,187.738996 M 738.967523,463.588560 l 0.000000,-187.530895 M 748.967523,305.967112 l 0.000000,150.599060 M 758.967523,450.468131 l 0.000000,-141.505297 M 768.967523,309.603503 l 0.000000,135.484750 M 778.967523,440.280482 l 0.000000,-130.330698 M 788.967523,310.105938 l 0.000000,125.832451 M 798.967523,432.062205 l 0.000000,-121.952948 M 808.967523,309.752837 l 0.000000,118.803041 M 818.967523,425.323087 l 0.000000,-116.112281 M 828.967523,308.460913 l 0.000000,113.864789 M 838.967523,419.650734 l 0.000000,-112.369581 M 848.967523,305.820774 l 0.000000,111.355913 M 858.967523,414.853112 l 0.000000,-110.824115 M 868.967523,301.723027 l 0.000000,111.060722 M 878.967523,410.856914 l 0.000000,-112.080864 M 888.967523,295.086314 l 0.000000,113.962713 M 898.967523,407.461624 l 0.000000,-116.998477 M 908.967523,283.919186 l 0.000000,122.028494 M 918.967523,404.598735 l 0.000000,-131.163181 M 928.967523,251.666000 l 0.000000,151.691361 M 938.967523,402.211466 l 0.000000,-150.545466 M 948.967523,251.666000 l 0.000000,149.543873 M 958.967523,400.252393 l 0.000000,-148.586393 M 968.967523,251.666000 l 0.000000,147.797539 M 978.967523,398.709704 l 0.000000,-147.043704 M 988.967523,251.666000 l 0.000000,146.503975 M 998.967523,397.630245 l 0.000000,-145.964245 M 1008.967523,251.666000 l 0.000000,145.424516 M 1018.967523,396.644229 l 0.000000,-144.978229 M 1028.967523,251.666000 l 0.000000,144.729901 M 1038.967523,396.147573 l 0.000000,-144.481573 M 1048.967523,251.666000 l 0.000000,144.233245 M 1058.967523,395.756096 l 0.000000,-144.090096 M 1068.967523,251.666000 l 0.000000,144.103661 M 1078.967523,395.783226 l 0.000000,-144.117226 M 1088.967523,251.666000 l 0.000000,144.130791 M 1098.967523,395.901057 l 0.000000,-144.235057 M 1108.967523,251.666000 l 0.000000,144.487302 M 1118.967523,396.405547 l 0.000000,-144.739547 M 1128.967523,251.666000 l 0.000000,144.991792 M 1138.967523,396.971155 l 0.000000,-145.305155 M 1148.967523,251.666000 l 0.000000,145.777893 M 1158.967523,397.916630 l 0.000000,-146.250630 M 1168.967523,251.666000 l 0.000000,146.723368 M 1178.967523,345.505382 l 0.000000,-93.839382 M 1188.967523,251.666000 l 0.000000,78.688860 M 1198.967523,320.287569 l 0.000000,-68.621569 M 1208.967523,251.666000 l 0.000000,60.769852 M 1218.967523,305.863265 l 0.000000,-54.197265 M 1228.967523,251.666000 l 0.000000,48.505698 M 1238.967523,295.084995 l 0.000000,-43.418995 M 1248.967523,251.666000 l 0.000000,38.965583 M 1258.967523,286.359307 l 0.000000,-34.693307 M 1268.967523,251.666000 l 0.000000,30.840803 M 1278.967523,278.846830 l 0.000000,-27.180830 M 1288.967523,251.666000 l 0.000000,23.735508 M 1298.967523,272.137602 l 0.000000,-20.471602 M 1308.967523,251.666000 l 0.000000,17.317386 M 1318.967523,265.971085 l 0.000000,-14.305085 M 1328.967523,251.666000 l 0.000000,11.346631 M 1338.967523,260.156844 l 0.000000,-8.490844 M 1348.967523,251.666000 l 0.000000,5.660041 M 1358.967523,254.495239 l 0.000000,-2.829239"
   style="stroke:#000000;stroke-width:1.000000;fill:none" /></g></g>
<g
   id="g3200">
	<g
   id="g3427"><path
   id="path3236"
   d="M1507.332,429.16   c-3.45,1.648-11.1,4.199-20.849,4.199c-21.899,0-36.148-14.851-36.148-37.049c0-22.349,15.299-38.698,38.999-38.698   c7.8,0,14.699,1.95,18.299,3.899l-3,10.05c-3.149-1.649-8.1-3.449-15.299-3.449c-16.648,0-25.648,12.449-25.648,27.448   c0,16.8,10.799,27.149,25.198,27.149c7.5,0,12.45-1.8,16.2-3.45L1507.332,429.16z"
   stroke-miterlimit="10"
   stroke-width="3"
   stroke="#000000"
   fill="none" />
	<path
   style="stroke:#000000;stroke-width:1.000000;fill:none"
   d="M 1452.777604,381.796610 l 0.000000,29.270543 M 1462.777604,425.527669 l 0.000000,-58.617396 M 1472.777604,360.726774 l 0.000000,13.157901 M 1472.777604,431.089217 l 0.000000,-14.061335 M 1482.777604,358.099061 l 0.000000,10.788761 M 1482.777604,433.200068 l 0.000000,-11.228676 M 1492.777604,357.816496 l 0.000000,10.507600 M 1492.777604,432.971064 l 0.000000,-10.493385 M 1502.777604,359.621593 l 0.000000,11.093092 M 1502.777604,430.862195 l 0.000000,-10.671800"
   id="path3430" /></g><g
   id="g3432"><path
   id="path3284"
   d="M1591.93,594.311c0,6.3,0.301,12.449,1.051,17.398   h-11.851l-1.05-9.148h-0.449c-4.05,5.699-11.85,10.8-22.199,10.8c-14.699,0-22.199-10.351-22.199-20.851   c0-17.549,15.599-27.147,43.647-26.998v-1.5c0-5.85-1.649-16.799-16.5-16.649c-6.898,0-13.948,1.95-19.049,5.399l-3-8.85   c6-3.75,14.851-6.299,23.999-6.299c22.199,0,27.6,15.147,27.6,29.549V594.311L1591.93,594.311z M1579.181,574.66   c-14.398-0.299-30.749,2.25-30.749,16.35c0,8.701,5.7,12.601,12.299,12.601c9.601,0,15.75-6,17.851-12.148   c0.45-1.5,0.6-3,0.6-4.201V574.66L1579.181,574.66z"
   stroke-miterlimit="10"
   stroke-width="3"
   stroke="#000000"
   fill="none" />
	<path
   style="stroke:#000000;stroke-width:1.000000;fill:none"
   d="M 1542.777604,542.654937 l 0.000000,8.474546 M 1542.777604,608.536768 l 0.000000,-33.323668 M 1552.777604,539.029852 l 0.000000,9.615135 M 1552.777604,580.819499 l 0.000000,-11.467518 M 1552.777604,601.065545 l 0.000000,11.876911 M 1562.777604,547.397571 l 0.000000,-9.679736 M 1562.777604,566.822599 l 0.000000,9.268221 M 1562.777604,612.833935 l 0.000000,-9.383584 M 1572.777604,538.515677 l 0.000000,11.603338 M 1572.777604,574.769602 l 0.000000,-9.013275 M 1572.777604,599.569477 l 0.000000,9.385497 M 1582.777604,611.709000 l 0.000000,-68.572794 M 1592.777604,609.643560 l 0.000000,2.065440"
   id="path3435" /></g><g
   id="g3437"><path
   id="path3242"
   d="M1710.131,325.214h13.2v106.495h-13.2V325.214z"
   stroke-miterlimit="10"
   stroke-width="3"
   stroke="#000000"
   fill="none" />
	<path
   style="stroke:#000000;stroke-width:1.000000;fill:none"
   d="M 1712.777604,325.214000 l 0.000000,106.495000 M 1722.777604,431.709000 l 0.000000,-106.495000"
   id="path3440" /></g><g
   id="g3442"><path
   id="path3250"
   d="M1942.626,378.762   c0-7.649-0.149-13.648-0.601-19.648h11.699l0.75,12h0.301c3.601-6.75,12-13.5,23.998-13.5c10.051,0,25.649,6,25.649,30.898v43.198   h-13.198v-41.848c0-11.7-4.351-21.449-16.801-21.449c-8.55,0-15.299,6.149-17.699,13.5c-0.6,1.649-0.898,3.899-0.898,6.148v43.648   h-13.2V378.762z"
   stroke-miterlimit="10"
   stroke-width="3"
   stroke="#000000"
   fill="none" />
	<path
   style="stroke:#000000;stroke-width:1.000000;fill:none"
   d="M 1942.777604,359.114000 l 0.000000,72.595000 M 1952.777604,431.709000 l 0.000000,-72.595000 M 1962.777604,362.442978 l 0.000000,10.421473 M 1972.777604,368.560059 l 0.000000,-10.283580 M 1982.777604,357.924455 l 0.000000,12.521856 M 1992.777604,431.710000 l 0.000000,-69.833045 M 2002.777604,376.002905 l 0.000000,55.707095"
   id="path3445" /></g><g
   id="g3447"><path
   id="path3212"
   d="M1973.079,214.811   c0,26.849-18.749,38.548-36.147,38.548c-19.5,0-34.799-14.399-34.799-37.349c0-24.149,16.049-38.398,35.998-38.398   C1958.98,177.612,1973.079,192.762,1973.079,214.811z M1915.632,215.561c0,15.899,9,27.899,21.899,27.899   c12.6,0,22.049-11.85,22.049-28.199c0-12.299-6.149-27.749-21.749-27.749C1922.382,187.512,1915.632,201.912,1915.632,215.561z"
   stroke-miterlimit="10"
   stroke-width="3"
   stroke="#000000"
   fill="none" />
	<path
   style="stroke:#000000;stroke-width:1.000000;fill:none"
   d="M 1902.777604,208.071322 l 0.000000,15.741339 M 1912.777604,243.809795 l 0.000000,-56.169839 M 1922.777604,180.815373 l 0.000000,13.434635 M 1922.777604,250.520187 l 0.000000,-13.961543 M 1932.777604,178.006813 l 0.000000,10.088376 M 1932.777604,253.113467 l 0.000000,-10.240880 M 1942.777604,177.903477 l 0.000000,10.204537 M 1942.777604,252.863442 l 0.000000,-10.198935 M 1952.777604,180.510143 l 0.000000,14.047261 M 1952.777604,249.928649 l 0.000000,-13.915557 M 1962.777604,187.323190 l 0.000000,55.558508 M 1972.777604,220.293166 l 0.000000,-10.640849"
   id="path3450" /></g><g
   id="g3452"><path
   id="path3258"
   d="M2320.62,338.713c0,4.5-3.149,8.101-8.399,8.101   c-4.801,0-7.949-3.601-7.949-8.101s3.3-8.25,8.249-8.25C2317.319,330.463,2320.62,334.063,2320.62,338.713z M2305.92,431.709   v-72.597h13.2v72.597H2305.92L2305.92,431.709z"
   stroke-miterlimit="10"
   stroke-width="3"
   stroke="#000000"
   fill="none" />
	<path
   style="stroke:#000000;stroke-width:1.000000;fill:none"
   d="M 2312.777604,330.487354 l 0.000000,16.277928 M 2312.777604,431.709000 l 0.000000,-72.597000"
   id="path3455" /></g><g
   id="g3457"><path
   id="path3290"
   d="M1843.326,591.76c0,7.65,0.148,14.25,0.6,19.949   h-11.699l-0.75-11.85h-0.3c-3.3,5.85-11.1,13.5-23.999,13.5c-11.398,0-25.049-6.449-25.049-31.8v-42.446h13.199v40.047   c0,13.801,4.35,23.25,16.199,23.25c8.85,0,14.998-6.15,17.398-12.15c0.75-1.799,1.2-4.199,1.2-6.75v-44.396h13.199L1843.326,591.76   L1843.326,591.76z"
   stroke-miterlimit="10"
   stroke-width="3"
   stroke="#000000"
   fill="none" />
	<path
   style="stroke:#000000;stroke-width:1.000000;fill:none"
   d="M 1782.777604,539.113000 l 0.000000,51.293801 M 1792.777604,608.837535 l 0.000000,-69.724535 M 1802.777604,599.836623 l 0.000000,13.183050 M 1812.777604,612.789496 l 0.000000,-10.487688 M 1822.777604,598.465745 l 0.000000,10.336640 M 1832.777604,611.709000 l 0.000000,-72.595000 M 1842.777604,539.114000 l 0.000000,72.595000"
   id="path3460" /></g><g
   id="g3462"><path
   id="path3220"
   d="M2332.174,234.31c0,6.3,0.301,12.45,1.051,17.399   h-11.851l-1.05-9.149h-0.449c-4.051,5.7-11.85,10.799-22.199,10.799c-14.699,0-22.199-10.35-22.199-20.849   c0-17.549,15.601-27.149,43.648-26.999v-1.5c0-5.85-1.65-16.799-16.5-16.649c-6.898,0-13.949,1.95-19.049,5.399l-3-8.85   c6-3.75,14.85-6.3,23.999-6.3c22.198,0,27.599,15.149,27.599,29.549V234.31z M2319.425,214.661   c-14.398-0.3-30.749,2.25-30.749,16.349c0,8.7,5.7,12.6,12.301,12.6c9.6,0,15.748-6,17.849-12.149c0.45-1.5,0.601-3,0.601-4.2   L2319.425,214.661L2319.425,214.661z"
   stroke-miterlimit="10"
   stroke-width="3"
   stroke="#000000"
   fill="none" />
	<path
   style="stroke:#000000;stroke-width:1.000000;fill:none"
   d="M 2282.777604,182.779717 l 0.000000,7.626016 M 2282.777604,248.327838 l 0.000000,-32.898143 M 2292.777604,179.077333 l 0.000000,9.617611 M 2292.777604,221.049588 l 0.000000,-11.598228 M 2292.777604,240.885386 l 0.000000,12.033171 M 2302.777604,187.375269 l 0.000000,-9.642855 M 2302.777604,206.857611 l 0.000000,9.308783 M 2302.777604,252.877724 l 0.000000,-9.409079 M 2312.777604,178.452156 l 0.000000,11.502119 M 2312.777604,214.788607 l 0.000000,-9.023621 M 2312.777604,239.784762 l 0.000000,9.317041 M 2322.777604,251.709000 l 0.000000,-68.747905 M 2332.777604,247.165514 l 0.000000,4.543486"
   id="path3465" /></g><g
   id="g3467"><path
   id="path3266"
   d="M2653.464,411.76c0,7.65,0.149,14.25,0.601,19.949   h-11.699l-0.75-11.85h-0.3c-3.3,5.85-11.101,13.5-23.999,13.5c-11.399,0-25.049-6.449-25.049-31.8v-42.447h13.198v40.048   c0,13.8,4.351,23.25,16.199,23.25c8.851,0,14.999-6.15,17.399-12.15c0.75-1.799,1.199-4.199,1.199-6.749v-44.397h13.199   L2653.464,411.76L2653.464,411.76z"
   stroke-miterlimit="10"
   stroke-width="3"
   stroke="#000000"
   fill="none" />
	<path
   style="stroke:#000000;stroke-width:1.000000;fill:none"
   d="M 2592.777604,359.112000 l 0.000000,50.191450 M 2602.777604,428.729368 l 0.000000,-69.617368 M 2612.777604,419.736380 l 0.000000,13.249132 M 2622.777604,432.821295 l 0.000000,-10.507539 M 2632.777604,418.588992 l 0.000000,10.292460 M 2642.777604,431.709000 l 0.000000,-72.595000 M 2652.777604,359.114000 l 0.000000,72.595000"
   id="path3470" /></g><g
   id="g3472"><path
   id="path3240"
   d="M1595.083,378.762c0-7.649-0.149-13.648-0.6-19.648   h11.698l0.75,12h0.301c3.601-6.75,12-13.5,23.999-13.5c10.05,0,25.648,6,25.648,30.898v43.198h-13.198v-41.848   c0-11.7-4.351-21.449-16.801-21.449c-8.55,0-15.299,6.149-17.699,13.5c-0.6,1.649-0.898,3.899-0.898,6.148v43.648h-13.2V378.762   L1595.083,378.762z"
   stroke-miterlimit="10"
   stroke-width="3"
   stroke="#000000"
   fill="none" />
	<path
   style="stroke:#000000;stroke-width:1.000000;fill:none"
   d="M 1602.777604,359.114000 l 0.000000,72.595000 M 1612.777604,375.420380 l 0.000000,-11.106402 M 1622.777604,358.828674 l 0.000000,10.132091 M 1632.777604,369.420068 l 0.000000,-11.687211 M 1642.777604,360.392032 l 0.000000,21.091448 M 1652.777604,431.710000 l 0.000000,-61.686296"
   id="path3475" /></g><g
   id="g3477"><path
   id="path3228"
   d="M2515.77,235.81c5.851,3.75,14.25,6.6,23.25,6.6   c13.349,0,21.147-7.049,21.147-17.249c0-9.3-5.399-14.85-19.049-19.949c-16.499-6-26.699-14.699-26.699-28.799   c0-15.75,13.05-27.449,32.699-27.449c10.198,0,17.849,2.4,22.198,4.95l-3.601,10.649c-3.149-1.95-9.899-4.8-19.049-4.8   c-13.8,0-19.05,8.25-19.05,15.149c0,9.45,6.149,14.1,20.1,19.499c17.1,6.6,25.648,14.85,25.648,29.699   c0,15.599-11.399,29.249-35.248,29.249c-9.75,0-20.399-3-25.8-6.6L2515.77,235.81z"
   stroke-miterlimit="10"
   stroke-width="3"
   stroke="#000000"
   fill="none" />
	<path
   style="stroke:#000000;stroke-width:1.000000;fill:none"
   d="M 2512.777604,245.295738 l 0.000000,1.701602 M 2522.777604,194.888070 l 0.000000,-37.449288 M 2522.777604,239.233827 l 0.000000,11.907293 M 2532.777604,164.123870 l 0.000000,-12.671113 M 2532.777604,186.448693 l 0.000000,15.133549 M 2532.777604,252.979494 l 0.000000,-11.045600 M 2542.777604,149.292591 l 0.000000,10.769698 M 2542.777604,205.891496 l 0.000000,-13.514091 M 2542.777604,242.154165 l 0.000000,11.009493 M 2552.777604,160.217787 l 0.000000,-10.925835 M 2552.777604,196.568131 l 0.000000,14.506340 M 2552.777604,251.248334 l 0.000000,-12.413345 M 2562.777604,151.226321 l 0.000000,11.806112 M 2562.777604,246.154100 l 0.000000,-43.753576 M 2572.777604,218.113998 l 0.000000,11.898885"
   id="path3480" /></g><g
   id="g3482"><path
   id="path3274"
   d="M2858.963,325.214h13.2v106.495h-13.2V325.214z"
   stroke-miterlimit="10"
   stroke-width="3"
   stroke="#000000"
   fill="none" />
	<path
   style="stroke:#000000;stroke-width:1.000000;fill:none"
   d="M 2862.777604,325.214000 l 0.000000,106.495000"
   id="path3485" /></g><g
   id="g3487"><path
   id="path3296"
   d="M1977.576,507.914   c-3.45,12.6-9.9,28.799-13.95,35.697l-8.399,0.899c3.301-8.85,7.2-24.299,8.851-35.098L1977.576,507.914z M1999.775,507.914   c-3.45,12.6-9.9,28.799-13.95,35.697l-8.399,0.899c3.15-8.85,7.2-24.299,8.85-35.098L1999.775,507.914z"
   stroke-miterlimit="10"
   stroke-width="3"
   stroke="#000000"
   fill="none" />
<path
   style="stroke:#000000;stroke-width:1.000000;fill:none"
   d="M 1962.777604,516.492778 l 0.000000,27.209032 M 1972.777604,522.570139 l 0.000000,-14.123616 M 1982.777604,526.140896 l 0.000000,17.796287 M 1992.777604,528.486803 l 0.000000,-19.796294"
   id="path3490" /></g><g
   id="g3492"><path
   id="path3206"
   d="M1639.032,145.214h13.2v45.448h0.3   c2.1-3.75,5.398-7.2,9.448-9.45c3.9-2.25,8.551-3.6,13.5-3.6c9.75,0,25.35,6,25.35,30.899v43.198h-13.199v-41.698   c0-11.7-4.35-21.449-16.8-21.449c-8.55,0-15.149,6-17.699,13.049c-0.75,1.95-0.899,3.9-0.899,6.3v43.798h-13.199L1639.032,145.214   L1639.032,145.214z"
   stroke-miterlimit="10"
   stroke-width="3"
   stroke="#000000"
   fill="none" />
	<path
   style="stroke:#000000;stroke-width:1.000000;fill:none"
   d="M 1642.777604,145.214000 l 0.000000,106.495000 M 1652.777604,203.056833 l 0.000000,-12.770528 M 1662.777604,180.817800 l 0.000000,9.725274 M 1672.777604,188.762150 l 0.000000,-10.967886 M 1682.777604,178.749274 l 0.000000,14.853780 M 1692.777604,251.709000 l 0.000000,-67.007075"
   id="path3495" /></g><g
   id="g3497"><path
   id="path3260"
   d="M2392.768,429.16   c-3.449,1.648-11.101,4.199-20.85,4.199c-21.898,0-36.148-14.851-36.148-37.049c0-22.349,15.3-38.698,38.998-38.698   c7.801,0,14.699,1.95,18.3,3.899l-3,10.05c-3.149-1.649-8.101-3.449-15.3-3.449c-16.648,0-25.648,12.449-25.648,27.448   c0,16.8,10.8,27.149,25.199,27.149c7.5,0,12.449-1.8,16.199-3.45L2392.768,429.16z"
   stroke-miterlimit="10"
   stroke-width="3"
   stroke="#000000"
   fill="none" />
	<path
   style="stroke:#000000;stroke-width:1.000000;fill:none"
   d="M 2342.777604,372.964238 l 0.000000,46.744243 M 2352.777604,380.437737 l 0.000000,-16.920875 M 2352.777604,410.468678 l 0.000000,18.149438 M 2362.777604,370.847645 l 0.000000,-11.674398 M 2362.777604,420.016071 l 0.000000,12.362031 M 2372.777604,368.302927 l 0.000000,-10.604285 M 2372.777604,422.567917 l 0.000000,10.738108 M 2382.777604,368.996731 l 0.000000,-10.638262 M 2382.777604,421.795675 l 0.000000,10.427155 M 2392.777604,362.483826 l 0.000000,-1.099501"
   id="path3500" /></g><g
   id="g3502"><path
   id="path3244"
   d="M1752.879,397.811   c0.301,17.85,11.55,25.199,24.899,25.199c9.448,0,15.3-1.649,20.1-3.75l2.399,9.449c-4.649,2.101-12.749,4.65-24.299,4.65   c-22.351,0-35.698-14.851-35.698-36.749c0-21.899,12.899-38.999,34.048-38.999c23.85,0,29.999,20.698,29.999,34.049   c0,2.7-0.149,4.649-0.45,6.149L1752.879,397.811L1752.879,397.811z M1791.578,388.361c0.148-8.25-3.45-21.3-18.3-21.3   c-13.499,0-19.199,12.149-20.249,21.3H1791.578z"
   stroke-miterlimit="10"
   stroke-width="3"
   stroke="#000000"
   fill="none" />
	<path
   style="stroke:#000000;stroke-width:1.000000;fill:none"
   d="M 1742.777604,380.876391 l 0.000000,30.865907 M 1752.777604,425.937394 l 0.000000,-60.474739 M 1762.777604,359.554162 l 0.000000,10.768312 M 1762.777604,397.810612 l 0.000000,-9.449612 M 1762.777604,418.785113 l 0.000000,12.518854 M 1772.777604,367.118449 l 0.000000,-9.428323 M 1772.777604,388.361000 l 0.000000,9.449220 M 1772.777604,433.224120 l 0.000000,-10.590618 M 1782.777604,358.623599 l 0.000000,10.870042 M 1782.777604,397.809827 l 0.000000,-9.448827 M 1782.777604,422.784888 l 0.000000,10.208403 M 1792.777604,397.809435 l 0.000000,-34.218534 M 1792.777604,421.068801 l 0.000000,10.183188 M 1802.777604,397.809043 l 0.000000,-17.758567"
   id="path3505" /></g><g
   id="g3507"><path
   id="path3252"
   d="M2073.573,341.713v17.399h18.898v10.05h-18.898   v39.147c0,9,2.55,14.101,9.898,14.101c3.602,0,5.7-0.301,7.65-0.9l0.6,10.05c-2.55,0.899-6.6,1.801-11.698,1.801   c-6.15,0-11.101-2.101-14.25-5.551c-3.601-4.05-5.101-10.499-5.101-19.05v-39.598h-11.249v-10.05h11.249v-13.5L2073.573,341.713z"
   stroke-miterlimit="10"
   stroke-width="3"
   stroke="#000000"
   fill="none" />
	<path
   style="stroke:#000000;stroke-width:1.000000;fill:none"
   d="M 2052.777604,359.112000 l 0.000000,10.050000 M 2062.777604,422.461003 l 0.000000,-77.485369 M 2072.777604,341.953388 l 0.000000,90.211246 M 2082.777604,369.162000 l 0.000000,-10.050000 M 2082.777604,422.345238 l 0.000000,10.897826"
   id="path3510" /></g><g
   id="g3512"><path
   id="path3214"
   d="M2026.78,179.112l9.75,36.898   c1.948,8.1,3.899,15.6,5.249,23.099h0.449c1.65-7.35,4.051-15.149,6.45-22.949l11.851-37.049h11.1l11.249,36.299   c2.7,8.7,4.8,16.349,6.45,23.699h0.449c1.199-7.35,3.149-14.999,5.55-23.549l10.351-36.449h13.05l-23.399,72.597h-11.999   l-11.1-34.648c-2.55-8.1-4.649-15.299-6.449-23.849h-0.301c-1.8,8.7-4.05,16.199-6.601,23.999l-11.699,34.499h-12l-21.897-72.597   H2026.78z"
   stroke-miterlimit="10"
   stroke-width="3"
   stroke="#000000"
   fill="none" />
	<path
   style="stroke:#000000;stroke-width:1.000000;fill:none"
   d="M 2022.777604,179.112000 l 0.000000,31.478275 M 2032.777604,243.744132 l 0.000000,-41.934737 M 2042.777604,236.998462 l 0.000000,14.710538 M 2052.777604,235.202311 l 0.000000,-31.858634 M 2062.777604,179.111000 l 0.000000,25.143669 M 2072.777604,218.769315 l 0.000000,-35.951924 M 2082.777604,215.086037 l 0.000000,34.897693 M 2092.777604,251.708000 l 0.000000,-26.486654 M 2102.777604,189.324170 l 0.000000,39.274025 M 2112.777604,197.572510 l 0.000000,-18.461510"
   id="path3515" /></g><g
   id="g3517"><path
   id="path3286"
   d="M1664.979,609.16   c-3.448,1.647-11.1,4.199-20.849,4.199c-21.899,0-36.147-14.851-36.147-37.05c0-22.35,15.299-38.696,38.998-38.696   c7.8,0,14.698,1.948,18.299,3.897l-2.999,10.051c-3.15-1.649-8.102-3.45-15.3-3.45c-16.649,0-25.649,12.45-25.649,27.448   c0,16.8,10.8,27.148,25.199,27.148c7.5,0,12.448-1.799,16.198-3.449L1664.979,609.16z"
   stroke-miterlimit="10"
   stroke-width="3"
   stroke="#000000"
   fill="none" />
	<path
   style="stroke:#000000;stroke-width:1.000000;fill:none"
   d="M 1612.777604,556.514074 l 0.000000,39.706898 M 1622.777604,565.851242 l 0.000000,-20.821557 M 1622.777604,585.133202 l 0.000000,22.139801 M 1632.777604,552.129099 l 0.000000,-12.250728 M 1632.777604,598.837992 l 0.000000,13.030720 M 1642.777604,548.514214 l 0.000000,-10.718279 M 1642.777604,602.363485 l 0.000000,10.937508 M 1652.777604,548.573391 l 0.000000,-10.598952 M 1652.777604,602.201410 l 0.000000,10.417421 M 1662.777604,549.896655 l 0.000000,-9.478005 M 1662.777604,599.471902 l 0.000000,10.578137"
   id="path3520" /></g><g
   id="g3522"><path
   id="path3222"
   d="M2353.475,145.214h13.2V251.71h-13.2V145.214z"
   stroke-miterlimit="10"
   stroke-width="3"
   stroke="#000000"
   fill="none" />
	<path
   style="stroke:#000000;stroke-width:1.000000;fill:none"
   d="M 2362.777604,145.214000 l 0.000000,106.496000"
   id="path3525" /></g><g
   id="g3527"><path
   id="path3268"
   d="M2675.365,381.762   c0-8.55-0.149-15.898-0.601-22.648h11.55l0.601,14.398h0.45c3.3-9.75,11.398-15.898,20.249-15.898c1.35,0,2.398,0.149,3.6,0.3   v12.449c-1.35-0.3-2.698-0.3-4.5-0.3c-9.299,0-15.898,6.899-17.698,16.799c-0.301,1.8-0.449,4.05-0.449,6.149v38.698h-13.2   L2675.365,381.762L2675.365,381.762z"
   stroke-miterlimit="10"
   stroke-width="3"
   stroke="#000000"
   fill="none" />
	<path
   style="stroke:#000000;stroke-width:1.000000;fill:none"
   d="M 2682.777604,359.114000 l 0.000000,72.595000 M 2692.777604,377.491034 l 0.000000,-13.157872 M 2702.777604,358.307231 l 0.000000,12.244256"
   id="path3530" /></g><g
   id="g3532"><path
   id="path3230"
   d="M2657.515,214.811   c0,26.849-18.749,38.548-36.147,38.548c-19.499,0-34.799-14.399-34.799-37.349c0-24.149,16.05-38.398,35.998-38.398   C2643.416,177.612,2657.515,192.762,2657.515,214.811z M2600.066,215.561c0,15.899,9,27.899,21.899,27.899   c12.601,0,22.049-11.85,22.049-28.199c0-12.299-6.148-27.749-21.749-27.749C2606.816,187.512,2600.066,201.912,2600.066,215.561z"
   stroke-miterlimit="10"
   stroke-width="3"
   stroke="#000000"
   fill="none" />
	<path
   style="stroke:#000000;stroke-width:1.000000;fill:none"
   d="M 2592.777604,193.139013 l 0.000000,45.255396 M 2602.777604,201.371182 l 0.000000,-18.192304 M 2602.777604,229.356932 l 0.000000,18.831183 M 2612.777604,189.738576 l 0.000000,-10.874083 M 2612.777604,241.118682 l 0.000000,11.212873 M 2622.777604,187.544140 l 0.000000,-9.922484 M 2622.777604,243.363684 l 0.000000,9.875817 M 2632.777604,190.482548 l 0.000000,-11.511783 M 2632.777604,239.983911 l 0.000000,11.542359 M 2642.777604,205.641185 l 0.000000,-22.078625 M 2642.777604,224.667102 l 0.000000,22.029054 M 2652.777604,235.353496 l 0.000000,-40.478647"
   id="path3535" /></g><g
   id="g3537"><path
   id="path3218"
   d="M2238.729,251.709v-62.547h-10.051v-10.05h10.051   v-3.45c0-10.2,2.398-19.499,8.398-25.349c4.95-4.8,11.55-6.75,17.699-6.75c4.8,0,8.699,1.05,11.25,2.1l-1.801,10.2   c-1.949-0.9-4.5-1.65-8.399-1.65c-11.249,0-14.101,9.75-14.101,20.999v3.9h17.551v10.05h-17.551v62.547H2238.729z"
   stroke-miterlimit="10"
   stroke-width="3"
   stroke="#000000"
   fill="none" />
	<path
   style="stroke:#000000;stroke-width:1.000000;fill:none"
   d="M 2232.777604,179.112000 l 0.000000,10.050000 M 2242.777604,251.709000 l 0.000000,-95.387395 M 2252.777604,146.444009 l 0.000000,19.188453 M 2252.777604,189.162000 l 0.000000,-10.050000 M 2262.777604,143.729774 l 0.000000,10.839398 M 2262.777604,189.162000 l 0.000000,-10.050000 M 2272.777604,144.667092 l 0.000000,10.694006"
   id="path3540" /></g><g
   id="g3542"><path
   id="path3276"
   d="M2899.462,359.112l14.249,40.647   c2.398,6.749,4.35,12.749,5.85,18.749h0.45c1.649-6,3.75-12,6.149-18.749l14.1-40.647h13.801l-28.5,72.597h-12.6l-27.6-72.597   H2899.462z"
   stroke-miterlimit="10"
   stroke-width="3"
   stroke="#000000"
   fill="none" />
	<path
   style="stroke:#000000;stroke-width:1.000000;fill:none"
   d="M 2892.777604,359.112000 l 0.000000,19.508088 M 2902.777604,404.923349 l 0.000000,-36.353185 M 2912.777604,397.096376 l 0.000000,34.130234 M 2922.777604,431.709000 l 0.000000,-22.207878 M 2932.777604,380.681996 l 0.000000,32.644414 M 2942.777604,387.853778 l 0.000000,-28.741778 M 2952.777604,359.112000 l 0.000000,3.269147"
   id="path3545" /></g><g
   id="g3547"><path
   id="path3238"
   d="M1573.782,414.311c0,6.3,0.3,12.449,1.05,17.398   h-11.85l-1.051-9.148h-0.449c-4.051,5.699-11.851,10.8-22.199,10.8c-14.699,0-22.199-10.351-22.199-20.851   c0-17.549,15.6-27.147,43.648-26.999v-1.5c0-5.85-1.65-16.799-16.499-16.648c-6.9,0-13.95,1.95-19.05,5.398l-3-8.85   c6-3.75,14.85-6.3,24-6.3c22.198,0,27.599,15.148,27.599,29.549V414.311L1573.782,414.311z M1561.032,394.661   c-14.399-0.3-30.749,2.25-30.749,16.349c0,8.7,5.699,12.601,12.299,12.601c9.6,0,15.75-6,17.85-12.148   c0.45-1.5,0.601-3,0.601-4.201V394.661L1561.032,394.661z"
   stroke-miterlimit="10"
   stroke-width="3"
   stroke="#000000"
   fill="none" />
	<path
   style="stroke:#000000;stroke-width:1.000000;fill:none"
   d="M 1522.777604,363.605467 l 0.000000,2.059616 M 1522.777604,426.963302 l 0.000000,-29.919686 M 1532.777604,359.431329 l 0.000000,9.790884 M 1532.777604,402.895515 l 0.000000,-12.753720 M 1532.777604,419.215360 l 0.000000,13.290613 M 1542.777604,367.463932 l 0.000000,-9.622917 M 1542.777604,387.096029 l 0.000000,9.564635 M 1542.777604,433.146869 l 0.000000,-9.551224 M 1552.777604,358.154275 l 0.000000,10.824909 M 1552.777604,394.909235 l 0.000000,-9.079495 M 1552.777604,420.825562 l 0.000000,9.252097 M 1562.777604,429.929921 l 0.000000,-68.112182 M 1572.777604,377.544177 l 0.000000,54.164823"
   id="path3550" /></g><g
   id="g3552"><path
   id="path3204"
   d="M1529.832,251.709l-25.649-101.096h13.8l12,51.147   c3,12.599,5.699,25.199,7.5,34.948h0.3c1.649-10.049,4.8-22.049,8.25-35.099l13.5-50.998h13.648l12.3,51.298   c2.851,12,5.55,23.999,7.05,34.648h0.3c2.101-11.1,4.95-22.349,8.1-34.949l13.351-50.998h13.35l-28.647,101.096h-13.649   l-12.75-52.648c-3.15-12.899-5.25-22.799-6.6-32.999h-0.301c-1.649,10.05-4.05,19.949-7.8,32.999l-14.398,52.648h-13.652V251.709z"
   stroke-miterlimit="10"
   stroke-width="3"
   stroke="#000000"
   fill="none" />
	<path
   style="stroke:#000000;stroke-width:1.000000;fill:none"
   d="M 1512.777604,150.613000 l 0.000000,33.875789 M 1522.777604,223.903971 l 0.000000,-52.855169 M 1532.777604,214.099113 l 0.000000,37.606887 M 1542.777604,251.706000 l 0.000000,-37.432550 M 1552.777604,176.130383 l 0.000000,41.603417 M 1562.777604,180.422098 l 0.000000,-29.811098 M 1572.777604,150.611000 l 0.000000,49.238183 M 1582.777604,241.141732 l 0.000000,-50.507431 M 1592.777604,236.557000 l 0.000000,15.149000 M 1602.777604,238.321802 l 0.000000,-43.767440 M 1612.777604,156.356474 l 0.000000,46.675071 M 1622.777604,167.741287 l 0.000000,-17.131287"
   id="path3555" /></g><g
   id="g3557"><path
   id="path3208"
   d="M1725.134,179.112l15.75,42.898   c1.8,4.8,3.601,10.5,4.8,14.849h0.301c1.35-4.35,2.85-9.899,4.648-15.149l14.399-42.598h13.95l-19.801,51.748   c-9.448,24.899-15.898,37.499-24.897,45.448c-6.601,5.55-12.899,7.799-16.2,8.399l-3.3-10.949c3.3-1.05,7.65-3.15,11.55-6.45   c3.601-2.85,7.95-7.95,11.101-14.7c0.6-1.35,1.05-2.4,1.05-3.15s-0.3-1.8-1.05-3.45l-26.699-66.897L1725.134,179.112   L1725.134,179.112z"
   stroke-miterlimit="10"
   stroke-width="3"
   stroke="#000000"
   fill="none" />
	<path
   style="stroke:#000000;stroke-width:1.000000;fill:none"
   d="M 1712.777604,179.111142 l 0.000000,5.115301 M 1722.777604,209.282437 l 0.000000,-30.170601 M 1722.777604,269.904127 l 0.000000,13.333625 M 1732.777604,234.338432 l 0.000000,-34.407680 M 1732.777604,260.376972 l 0.000000,17.039244 M 1742.777604,266.237030 l 0.000000,-38.749976 M 1752.777604,215.365403 l 0.000000,31.465619 M 1762.777604,221.460622 l 0.000000,-35.679218 M 1772.777604,179.112000 l 0.000000,16.214589"
   id="path3560" /></g><g
   id="g3562"><path
   id="path3292"
   d="M1865.229,562.811   c0-9.299-0.301-16.799-0.601-23.696h11.699l0.75,12.448h0.3c5.25-8.85,13.95-13.948,25.801-13.948   c17.698,0,30.897,14.848,30.897,36.748c0,26.098-16.05,38.998-33.147,38.998c-9.601,0-18-4.199-22.351-11.4h-0.3v39.449h-13.051   v-78.599H1865.229z M1878.277,582.16c0,1.951,0.149,3.75,0.6,5.399c2.4,9.15,10.35,15.449,19.8,15.449   c13.949,0,22.05-11.399,22.05-28.049c0-14.398-7.649-26.85-21.6-26.85c-9,0-17.55,6.301-19.949,16.198   c-0.449,1.65-0.9,3.603-0.9,5.25V582.16L1878.277,582.16z"
   stroke-miterlimit="10"
   stroke-width="3"
   stroke="#000000"
   fill="none" />
	<path
   style="stroke:#000000;stroke-width:1.000000;fill:none"
   d="M 1872.777604,539.115000 l 0.000000,102.295000 M 1882.777604,556.643960 l 0.000000,-11.703006 M 1882.777604,595.276571 l 0.000000,11.679388 M 1892.777604,549.188529 l 0.000000,-9.985550 M 1892.777604,602.096672 l 0.000000,10.139053 M 1902.777604,548.525716 l 0.000000,-10.888687 M 1902.777604,602.575513 l 0.000000,10.697787 M 1912.777604,553.551728 l 0.000000,-14.351629 M 1912.777604,597.483004 l 0.000000,13.647414 M 1922.777604,604.726019 l 0.000000,-59.508916 M 1932.777604,563.025675 l 0.000000,23.224271"
   id="path3565" /></g><g
   id="g3567"><path
   id="path3254"
   d="M2172.121,394.811   c0,26.85-18.749,38.549-36.148,38.549c-19.498,0-34.798-14.399-34.798-37.35c0-24.148,16.05-38.397,35.998-38.397   C2158.021,357.612,2172.121,372.762,2172.121,394.811z M2114.674,395.561c0,15.9,9,27.899,21.899,27.899   c12.6,0,22.049-11.85,22.049-28.199c0-12.299-6.149-27.749-21.749-27.749C2121.424,367.512,2114.674,381.912,2114.674,395.561z"
   stroke-miterlimit="10"
   stroke-width="3"
   stroke="#000000"
   fill="none" />
	<path
   style="stroke:#000000;stroke-width:1.000000;fill:none"
   d="M 2102.777604,383.544177 l 0.000000,24.626143 M 2112.777604,424.702223 l 0.000000,-57.933349 M 2122.777604,360.378945 l 0.000000,12.741908 M 2122.777604,430.915820 l 0.000000,-13.349925 M 2132.777604,357.875871 l 0.000000,10.041928 M 2132.777604,433.211657 l 0.000000,-10.198368 M 2142.777604,358.040004 l 0.000000,10.328439 M 2142.777604,432.737602 l 0.000000,-10.430629 M 2152.777604,360.968339 l 0.000000,14.783656 M 2152.777604,429.450390 l 0.000000,-14.668412 M 2162.777604,368.314177 l 0.000000,53.591968"
   id="path3570" /></g><g
   id="g3572"><path
   id="path3216"
   d="M2137.779,217.811   c0.301,17.849,11.55,25.199,24.898,25.199c9.449,0,15.301-1.65,20.101-3.75l2.398,9.45c-4.648,2.1-12.749,4.65-24.299,4.65   c-22.351,0-35.698-14.849-35.698-36.749c0-21.899,12.899-38.999,34.049-38.999c23.85,0,29.998,20.699,29.998,34.049   c0,2.7-0.148,4.65-0.449,6.15H2137.779L2137.779,217.811z M2176.479,208.361c0.149-8.25-3.449-21.299-18.3-21.299   c-13.499,0-19.198,12.149-20.249,21.299H2176.479z"
   stroke-miterlimit="10"
   stroke-width="3"
   stroke="#000000"
   fill="none" />
	<path
   style="stroke:#000000;stroke-width:1.000000;fill:none"
   d="M 2132.777604,190.883198 l 0.000000,50.119950 M 2142.777604,195.221973 l 0.000000,-13.413910 M 2142.777604,208.361000 l 0.000000,9.450000 M 2142.777604,249.286135 l 0.000000,-15.082306 M 2152.777604,178.217908 l 0.000000,9.645708 M 2152.777604,217.811000 l 0.000000,-9.450000 M 2152.777604,241.397970 l 0.000000,11.247265 M 2162.777604,187.557202 l 0.000000,-9.749126 M 2162.777604,208.361000 l 0.000000,9.450000 M 2162.777604,253.257747 l 0.000000,-10.252278 M 2172.777604,180.500253 l 0.000000,13.899339 M 2172.777604,217.811000 l 0.000000,-9.450000 M 2172.777604,242.175098 l 0.000000,10.114316 M 2182.777604,217.811000 l 0.000000,-28.711799 M 2182.777604,239.260152 l 0.000000,10.385503"
   id="path3575" /></g><g
   id="g3577"><path
   id="path3282"
   d="M1455.584,505.213h13.049v45.6h0.3   c4.65-8.1,13.051-13.198,24.749-13.198c18.149,0,30.749,14.998,30.749,36.897c0,25.947-16.5,38.849-32.698,38.849   c-10.5,0-18.899-4.05-24.449-13.5h-0.3l-0.75,11.85h-11.25c0.3-4.949,0.6-12.299,0.6-18.748L1455.584,505.213L1455.584,505.213z    M1468.634,582.611c0,1.647,0.15,3.299,0.601,4.799c2.399,9.15,10.199,15.449,19.799,15.449c13.949,0,22.049-11.25,22.049-27.898   c0-14.549-7.5-26.998-21.749-26.998c-8.851,0-17.25,6.299-19.949,16.199c-0.45,1.647-0.75,3.449-0.75,5.549V582.611   L1468.634,582.611z"
   stroke-miterlimit="10"
   stroke-width="3"
   stroke="#000000"
   fill="none" />
	<path
   style="stroke:#000000;stroke-width:1.000000;fill:none"
   d="M 1462.777604,505.213000 l 0.000000,106.498000 M 1472.777604,556.963736 l 0.000000,-11.242839 M 1472.777604,594.704629 l 0.000000,11.944290 M 1482.777604,549.140613 l 0.000000,-9.746586 M 1482.777604,601.871647 l 0.000000,10.274331 M 1492.777604,548.349007 l 0.000000,-10.683806 M 1492.777604,602.469004 l 0.000000,10.839971 M 1502.777604,552.995118 l 0.000000,-13.984685 M 1502.777604,597.760093 l 0.000000,13.506531 M 1512.777604,604.974448 l 0.000000,-60.249820 M 1522.777604,561.649033 l 0.000000,26.158809"
   id="path3580" /></g><g
   id="g3582"><path
   id="path3262"
   d="M2421.268,392.411h0.301   c1.8-2.55,4.199-5.7,6.3-8.25l21.449-25.049h15.749l-27.898,29.849l31.948,42.748h-16.199l-24.897-34.798l-6.75,7.5v27.299h-13.051   V325.214h13.051v67.197H2421.268z"
   stroke-miterlimit="10"
   stroke-width="3"
   stroke="#000000"
   fill="none" />
	<path
   style="stroke:#000000;stroke-width:1.000000;fill:none"
   d="M 2412.777604,325.214000 l 0.000000,106.496000 M 2422.777604,402.736995 l 0.000000,-11.908691 M 2432.777604,378.428536 l 0.000000,25.130668 M 2442.777604,382.960167 l 0.000000,-16.210032 M 2442.777604,396.465589 l 0.000000,21.070398 M 2452.777604,372.260834 l 0.000000,-13.148834 M 2452.777604,409.846082 l 0.000000,21.666689 M 2462.777604,361.561501 l 0.000000,-2.449501 M 2462.777604,423.226576 l 0.000000,8.482424"
   id="path3585" /></g><g
   id="g3587"><path
   id="path3224"
   d="M2388.873,145.214h13.2V251.71h-13.2V145.214z"
   stroke-miterlimit="10"
   stroke-width="3"
   stroke="#000000"
   fill="none" />
	<path
   style="stroke:#000000;stroke-width:1.000000;fill:none"
   d="M 2392.777604,145.214000 l 0.000000,106.496000"
   id="path3590" /></g><g
   id="g3592"><path
   id="path3270"
   d="M2722.615,418.359   c4.05,2.399,10.949,5.101,17.55,5.101c9.449,0,13.949-4.649,13.949-10.8c0-6.3-3.75-9.601-13.351-13.199   c-13.199-4.8-19.35-11.85-19.35-20.549c0-11.7,9.6-21.299,25.05-21.299c7.351,0,13.799,1.95,17.699,4.5l-3.15,9.6   c-2.85-1.8-8.1-4.35-14.85-4.35c-7.8,0-11.999,4.5-11.999,9.898c0,6,4.199,8.7,13.648,12.45   c12.449,4.649,19.049,10.949,19.049,21.75c0,12.898-10.049,21.898-26.998,21.898c-7.949,0-15.3-2.101-20.398-5.101   L2722.615,418.359z"
   stroke-miterlimit="10"
   stroke-width="3"
   stroke="#000000"
   fill="none" />
	<path
   style="stroke:#000000;stroke-width:1.000000;fill:none"
   d="M 2722.777604,371.805582 l 0.000000,13.693733 M 2722.777604,429.877597 l 0.000000,-11.435086 M 2732.777604,360.793048 l 0.000000,34.977406 M 2732.777604,432.740639 l 0.000000,-10.346605 M 2742.777604,357.904042 l 0.000000,9.815229 M 2742.777604,400.345537 l 0.000000,-12.842093 M 2742.777604,423.292959 l 0.000000,9.866753 M 2752.777604,368.271118 l 0.000000,-10.117588 M 2752.777604,391.838736 l 0.000000,15.488911 M 2752.777604,431.108630 l 0.000000,-13.333119 M 2762.777604,361.383750 l 0.000000,4.948360 M 2762.777604,424.067116 l 0.000000,-24.769558"
   id="path3595" /></g><g
   id="g3597"><path
   id="path3232"
   d="M2711.216,179.112l9.75,36.898   c1.949,8.1,3.899,15.6,5.249,23.099h0.45c1.649-7.35,4.05-15.149,6.45-22.949l11.85-37.049h11.101l11.249,36.299   c2.699,8.7,4.8,16.349,6.449,23.699h0.449c1.2-7.35,3.15-14.999,5.551-23.549l10.35-36.449h13.05l-23.398,72.597h-11.999   l-11.101-34.648c-2.55-8.1-4.648-15.299-6.448-23.849h-0.302c-1.8,8.7-4.05,16.199-6.6,23.999l-11.699,34.499h-12l-21.897-72.597   H2711.216z"
   stroke-miterlimit="10"
   stroke-width="3"
   stroke="#000000"
   fill="none" />
	<path
   style="stroke:#000000;stroke-width:1.000000;fill:none"
   d="M 2702.777604,179.112000 l 0.000000,16.767909 M 2712.777604,229.033765 l 0.000000,-44.012014 M 2722.777604,223.497005 l 0.000000,28.211995 M 2732.777604,248.286512 l 0.000000,-31.006237 M 2742.777604,185.949888 l 0.000000,32.847779 M 2752.777604,203.729710 l 0.000000,-24.618710 M 2762.777604,200.768438 l 0.000000,35.366858 M 2772.777604,251.708000 l 0.000000,-16.551639 M 2782.777604,204.947163 l 0.000000,37.416729 M 2792.777604,211.336881 l 0.000000,-32.225881 M 2802.777604,179.111000 l 0.000000,1.198870"
   id="path3600" /></g><g
   id="g3602"><path
   id="path3278"
   d="M2972.36,397.811   c0.301,17.85,11.55,25.199,24.898,25.199c9.449,0,15.3-1.649,20.101-3.75l2.398,9.449c-4.648,2.101-12.749,4.65-24.299,4.65   c-22.35,0-35.698-14.851-35.698-36.749c0-21.899,12.899-38.999,34.048-38.999c23.851,0,30,20.698,30,34.049   c0,2.7-0.15,4.649-0.45,6.149L2972.36,397.811L2972.36,397.811z M3011.061,388.361c0.148-8.25-3.45-21.3-18.301-21.3   c-13.499,0-19.199,12.149-20.249,21.3H3011.061z"
   stroke-miterlimit="10"
   stroke-width="3"
   stroke="#000000"
   fill="none" />
	<path
   style="stroke:#000000;stroke-width:1.000000;fill:none"
   d="M 2962.777604,379.500393 l 0.000000,33.498478 M 2972.777604,386.832416 l 0.000000,-21.820660 M 2972.777604,388.361000 l 0.000000,9.449984 M 2972.777604,426.328459 l 0.000000,-24.259183 M 2982.777604,359.347292 l 0.000000,10.621924 M 2982.777604,397.810591 l 0.000000,-9.449591 M 2982.777604,419.157741 l 0.000000,12.320967 M 2992.777604,367.061985 l 0.000000,-9.398398 M 2992.777604,388.361000 l 0.000000,9.449199 M 2992.777604,433.246030 l 0.000000,-10.557311 M 3002.777604,358.784882 l 0.000000,11.094953 M 3002.777604,397.809807 l 0.000000,-9.448807 M 3002.777604,422.761492 l 0.000000,10.203839 M 3012.777604,397.809415 l 0.000000,-33.784494 M 3012.777604,420.930446 l 0.000000,10.177952 M 3022.777604,397.809023 l 0.000000,-15.425401"
   id="path3605" /></g><g
   id="g3607"><path
   id="path3288"
   d="M1693.479,572.41h0.301   c1.8-2.549,4.199-5.699,6.3-8.248l21.449-25.049h15.749l-27.898,29.848l31.948,42.748h-16.199l-24.897-34.799l-6.75,7.5v27.299   h-13.051V505.213h13.051v67.197H1693.479z"
   stroke-miterlimit="10"
   stroke-width="3"
   stroke="#000000"
   fill="none" />
	<path
   style="stroke:#000000;stroke-width:1.000000;fill:none"
   d="M 1682.777604,505.213000 l 0.000000,106.496000 M 1692.777604,611.709000 l 0.000000,-106.496000 M 1702.777604,561.011630 l 0.000000,19.456409 M 1712.777604,565.325912 l 0.000000,-15.992682 M 1712.777604,573.507162 l 0.000000,20.938062 M 1722.777604,554.626937 l 0.000000,-15.513937 M 1722.777604,586.887655 l 0.000000,21.534755 M 1732.777604,543.927962 l 0.000000,-4.814962 M 1732.777604,600.268149 l 0.000000,11.440851"
   id="path3610" /></g><g
   id="g3612"><path
   id="path3210"
   d="M1885.33,145.214v87.747   c0,6.45,0.3,13.799,0.6,18.749h-11.699l-0.6-12.6h-0.449c-3.9,8.1-12.601,14.25-24.449,14.25   c-17.549,0-31.198-14.849-31.198-36.898c-0.15-24.149,14.999-38.849,32.548-38.849c11.25,0,18.6,5.25,21.898,10.95h0.301v-43.348   L1885.33,145.214L1885.33,145.214z M1872.28,208.661c0-1.65-0.149-3.9-0.601-5.55c-1.949-8.25-9.148-15.149-19.05-15.149   c-13.649,0-21.749,12-21.749,27.899c0,14.7,7.352,26.849,21.449,26.849c8.85,0,16.949-6,19.35-15.75c0.45-1.8,0.6-3.6,0.6-5.7   L1872.28,208.661L1872.28,208.661z"
   stroke-miterlimit="10"
   stroke-width="3"
   stroke="#000000"
   fill="none" />
	<path
   style="stroke:#000000;stroke-width:1.000000;fill:none"
   d="M 1822.777604,194.256345 l 0.000000,43.567041 M 1832.777604,203.692302 l 0.000000,-20.645996 M 1832.777604,227.674593 l 0.000000,20.928625 M 1842.777604,190.554273 l 0.000000,-12.028922 M 1842.777604,240.411021 l 0.000000,12.336611 M 1852.777604,187.974968 l 0.000000,-10.203911 M 1852.777604,242.672064 l 0.000000,10.424018 M 1862.777604,190.779811 l 0.000000,-10.410242 M 1862.777604,239.585501 l 0.000000,10.291534 M 1872.777604,239.815372 l 0.000000,-94.600410 M 1882.777604,145.214196 l 0.000000,106.495804"
   id="path3615" /></g><g
   id="g3617"><path
   id="path3202"
   d="M1449.885,184.512   c3.45-12.6,9.899-28.799,13.949-35.699l8.399-0.9c-3.149,8.85-7.199,24.299-8.851,35.099L1449.885,184.512z M1472.083,184.512   c3.45-12.6,9.9-28.799,13.95-35.699l8.398-0.9c-3.3,8.85-7.199,24.299-8.85,35.099L1472.083,184.512z"
   stroke-miterlimit="10"
   stroke-width="3"
   stroke="#000000"
   fill="none" />
	<path
   style="stroke:#000000;stroke-width:1.000000;fill:none"
   d="M 1452.777604,175.148301 l 0.000000,9.042227 M 1462.777604,183.079170 l 0.000000,-32.180978 M 1472.777604,182.263599 l 0.000000,2.171211 M 1482.777604,183.323535 l 0.000000,-28.085089 M 1492.777604,148.090192 l 0.000000,4.828887"
   id="path3620" /></g><g
   id="g3622"><path
   id="path3248"
   d="M1892.977,381.762c0-8.55-0.148-15.898-0.6-22.648   h11.551l0.6,14.398h0.449c3.301-9.75,11.399-15.898,20.25-15.898c1.35,0,2.398,0.149,3.6,0.3v12.449c-1.35-0.3-2.699-0.3-4.5-0.3   c-9.299,0-15.899,6.899-17.699,16.799c-0.3,1.8-0.449,4.05-0.449,6.149v38.698h-13.199v-49.947H1892.977z"
   stroke-miterlimit="10"
   stroke-width="3"
   stroke="#000000"
   fill="none" />
	<path
   style="stroke:#000000;stroke-width:1.000000;fill:none"
   d="M 1892.777604,359.114000 l 0.000000,9.086336 M 1902.777604,431.709000 l 0.000000,-72.595000 M 1912.777604,362.127769 l 0.000000,12.531426 M 1922.777604,370.208766 l 0.000000,-12.383008"
   id="path3625" /></g><g
   id="g3627"><path
   id="path3294"
   d="M1943.828,603.91c0-5.4,3.75-9.449,9-9.449   c5.249,0,8.85,3.898,8.85,9.449c0,5.399-3.601,9.449-9.15,9.449C1947.428,613.359,1943.828,609.311,1943.828,603.91z"
   stroke-miterlimit="10"
   stroke-width="3"
   stroke="#000000"
   fill="none" />
	<path
   style="stroke:#000000;stroke-width:1.000000;fill:none"
   d="M 1952.777604,594.465910 l 0.000000,18.869897"
   id="path3630" /></g><g
   id="g3632"><path
   id="path3256"
   d="M2220.572,382.813c0-9.301-0.301-16.8-0.601-23.699   h11.699l0.75,12.45h0.3c5.25-8.851,13.95-13.95,25.801-13.95c17.698,0,30.897,14.85,30.897,36.749   c0,26.099-16.05,38.999-33.147,38.999c-9.601,0-18-4.199-22.351-11.399h-0.3v39.448h-13.051v-78.598H2220.572z M2233.622,402.16   c0,1.951,0.149,3.75,0.601,5.399c2.399,9.149,10.35,15.449,19.8,15.449c13.948,0,22.049-11.398,22.049-28.049   c0-14.399-7.649-26.849-21.599-26.849c-9,0-17.551,6.3-19.949,16.199c-0.45,1.65-0.9,3.601-0.9,5.25L2233.622,402.16   L2233.622,402.16z"
   stroke-miterlimit="10"
   stroke-width="3"
   stroke="#000000"
   fill="none" />
	<path
   style="stroke:#000000;stroke-width:1.000000;fill:none"
   d="M 2222.777604,359.114000 l 0.000000,102.297000 M 2232.777604,461.411000 l 0.000000,-89.931940 M 2242.777604,361.507474 l 0.000000,10.488000 M 2242.777604,430.156030 l 0.000000,-10.585972 M 2252.777604,358.103406 l 0.000000,10.153694 M 2252.777604,433.169989 l 0.000000,-10.265691 M 2262.777604,357.946743 l 0.000000,11.978663 M 2262.777604,432.713972 l 0.000000,-11.547622 M 2272.777604,361.324945 l 0.000000,18.581362 M 2272.777604,428.815623 l 0.000000,-17.675879 M 2282.777604,370.658335 l 0.000000,48.478222"
   id="path3635" /></g><g
   id="g3637"><path
   id="path3246"
   d="M1871.676,414.311c0,6.3,0.301,12.449,1.051,17.398   h-11.851l-1.05-9.148h-0.449c-4.051,5.699-11.85,10.8-22.199,10.8c-14.699,0-22.199-10.351-22.199-20.851   c0-17.549,15.601-27.147,43.648-26.999v-1.5c0-5.85-1.65-16.799-16.5-16.648c-6.898,0-13.949,1.95-19.049,5.398l-3-8.85   c6-3.75,14.85-6.3,23.999-6.3c22.199,0,27.599,15.148,27.599,29.549V414.311L1871.676,414.311z M1858.927,394.661   c-14.399-0.3-30.749,2.25-30.749,16.349c0,8.7,5.7,12.601,12.301,12.601c9.6,0,15.748-6,17.849-12.148   c0.45-1.5,0.601-3,0.601-4.201L1858.927,394.661L1858.927,394.661z"
   stroke-miterlimit="10"
   stroke-width="3"
   stroke="#000000"
   fill="none" />
	<path
   style="stroke:#000000;stroke-width:1.000000;fill:none"
   d="M 1822.777604,362.523822 l 0.000000,9.351010 M 1822.777604,428.752684 l 0.000000,-33.764605 M 1832.777604,358.977437 l 0.000000,9.614675 M 1832.777604,400.618513 l 0.000000,-11.339836 M 1832.777604,421.251335 l 0.000000,11.713961 M 1842.777604,367.419529 l 0.000000,-9.720755 M 1842.777604,386.784720 l 0.000000,9.228329 M 1842.777604,432.786409 l 0.000000,-9.355859 M 1852.777604,358.577474 l 0.000000,11.710525 M 1852.777604,394.751194 l 0.000000,-9.005796 M 1852.777604,419.345254 l 0.000000,9.455341 M 1862.777604,431.709000 l 0.000000,-68.348362"
   id="path3640" /></g><g
   id="g3642"><path
   id="path3264"
   d="M2576.063,394.811   c0,26.85-18.748,38.549-36.147,38.549c-19.499,0-34.798-14.399-34.798-37.35c0-24.148,16.049-38.397,35.998-38.397   C2561.965,357.612,2576.063,372.762,2576.063,394.811z M2518.616,395.561c0,15.9,9,27.899,21.898,27.899   c12.601,0,22.05-11.85,22.05-28.199c0-12.299-6.149-27.749-21.75-27.749C2525.366,367.512,2518.616,381.912,2518.616,395.561z"
   stroke-miterlimit="10"
   stroke-width="3"
   stroke="#000000"
   fill="none" />
	<path
   style="stroke:#000000;stroke-width:1.000000;fill:none"
   d="M 2512.777604,371.115550 l 0.000000,49.339234 M 2522.777604,378.492509 l 0.000000,-16.163723 M 2522.777604,412.380500 l 0.000000,16.682318 M 2532.777604,369.050201 l 0.000000,-10.526900 M 2532.777604,421.757713 l 0.000000,10.927856 M 2542.777604,367.635117 l 0.000000,-9.946010 M 2542.777604,423.191703 l 0.000000,9.925715 M 2552.777604,371.476036 l 0.000000,-12.073383 M 2552.777604,419.015739 l 0.000000,12.130024 M 2562.777604,425.584241 l 0.000000,-60.900272 M 2572.777604,377.892636 l 0.000000,34.443920"
   id="path3645" /></g><g
   id="g3647"><path
   id="path3226"
   d="M2434.472,222.911l-0.3-3.9   c-0.9-7.95,1.8-16.949,9.299-25.949c6.75-7.95,10.5-13.8,10.5-20.549c0-7.65-4.8-12.75-14.25-12.899   c-5.398,0-11.398,1.8-15.147,4.65l-3.602-9.45c5.101-3.6,13.5-6,21.449-6c17.249,0,25.049,10.65,25.049,22.049   c0,10.2-5.698,17.549-12.898,26.099c-6.601,7.799-8.999,14.549-8.55,22.199l0.301,3.75H2434.472z M2431.321,244.06   c0-5.549,3.75-9.449,8.85-9.449c5.4,0,8.851,3.9,8.851,9.449c0,5.25-3.449,9.3-8.999,9.3   C2434.922,253.359,2431.321,249.31,2431.321,244.06z"
   stroke-miterlimit="10"
   stroke-width="3"
   stroke="#000000"
   fill="none" />
	<path
   style="stroke:#000000;stroke-width:1.000000;fill:none"
   d="M 2422.777604,153.802724 l 0.000000,5.748356 M 2432.777604,160.585183 l 0.000000,-10.572389 M 2432.777604,238.630273 l 0.000000,10.743283 M 2442.777604,159.874360 l 0.000000,-11.031975 M 2442.777604,193.965165 l 0.000000,28.945835 M 2442.777604,252.943225 l 0.000000,-17.951608 M 2452.777604,150.436020 l 0.000000,16.278666 M 2452.777604,199.399353 l 0.000000,-20.736962 M 2462.777604,157.250809 l 0.000000,28.703790"
   id="path3650" /></g><g
   id="g3652"><path
   id="path3272"
   d="M2791.164,397.811   c0.301,17.85,11.55,25.199,24.898,25.199c9.449,0,15.301-1.649,20.101-3.75l2.399,9.449c-4.649,2.101-12.75,4.65-24.3,4.65   c-22.35,0-35.698-14.851-35.698-36.749c0-21.899,12.899-38.999,34.049-38.999c23.85,0,29.999,20.698,29.999,34.049   c0,2.7-0.149,4.649-0.45,6.149L2791.164,397.811L2791.164,397.811z M2829.863,388.361c0.148-8.25-3.45-21.3-18.301-21.3   c-13.498,0-19.198,12.149-20.248,21.3H2829.863z"
   stroke-miterlimit="10"
   stroke-width="3"
   stroke="#000000"
   fill="none" />
	<path
   style="stroke:#000000;stroke-width:1.000000;fill:none"
   d="M 2782.777604,376.672976 l 0.000000,38.974950 M 2792.777604,381.991178 l 0.000000,-17.975114 M 2792.777604,388.361000 l 0.000000,9.449937 M 2792.777604,427.228636 l 0.000000,-19.758658 M 2802.777604,359.016532 l 0.000000,10.136088 M 2802.777604,397.810545 l 0.000000,-9.449545 M 2802.777604,419.910407 l 0.000000,11.958763 M 2812.777604,367.129036 l 0.000000,-9.508944 M 2812.777604,388.361000 l 0.000000,9.449152 M 2812.777604,433.296438 l 0.000000,-10.521956 M 2822.777604,359.155894 l 0.000000,11.618142 M 2822.777604,397.809760 l 0.000000,-9.448760 M 2822.777604,422.680215 l 0.000000,10.165435 M 2832.777604,397.809368 l 0.000000,-32.740054 M 2832.777604,420.559006 l 0.000000,10.218978"
   id="path3655" /></g><g
   id="g3657"><path
   id="path3234"
   d="M2822.215,217.811   c0.301,17.849,11.551,25.199,24.899,25.199c9.448,0,15.3-1.65,20.1-3.75l2.399,9.45c-4.649,2.1-12.749,4.65-24.299,4.65   c-22.351,0-35.698-14.849-35.698-36.749c0-21.899,12.898-38.999,34.048-38.999c23.85,0,29.999,20.699,29.999,34.049   c0,2.7-0.149,4.65-0.45,6.15H2822.215L2822.215,217.811z M2860.914,208.361c0.148-8.25-3.45-21.299-18.3-21.299   c-13.499,0-19.199,12.149-20.249,21.299H2860.914z"
   stroke-miterlimit="10"
   stroke-width="3"
   stroke="#000000"
   fill="none" />
	<path
   style="stroke:#000000;stroke-width:1.000000;fill:none"
   d="M 2812.777604,199.119874 l 0.000000,34.229354 M 2822.777604,205.995541 l 0.000000,-21.108024 M 2822.777604,208.361000 l 0.000000,9.450000 M 2822.777604,246.438753 l 0.000000,-22.891594 M 2832.777604,179.304524 l 0.000000,10.566097 M 2832.777604,217.811000 l 0.000000,-9.450000 M 2832.777604,239.261056 l 0.000000,12.267409 M 2842.777604,187.071157 l 0.000000,-9.413921 M 2842.777604,208.361000 l 0.000000,9.450000 M 2842.777604,253.253117 l 0.000000,-10.554106 M 2852.777604,178.830742 l 0.000000,11.159336 M 2852.777604,217.811000 l 0.000000,-9.450000 M 2852.777604,242.754868 l 0.000000,10.203581 M 2862.777604,217.811000 l 0.000000,-33.663876 M 2862.777604,240.891529 l 0.000000,10.177567 M 2872.777604,217.811000 l 0.000000,-14.624064"
   id="path3660" /></g><g
   id="g3662"><path
   id="path3280"
   d="M3038.359,418.359   c4.05,2.399,10.949,5.101,17.55,5.101c9.448,0,13.948-4.649,13.948-10.8c0-6.3-3.75-9.601-13.35-13.199   c-13.199-4.8-19.35-11.85-19.35-20.549c0-11.7,9.6-21.299,25.05-21.299c7.35,0,13.799,1.95,17.698,4.5l-3.149,9.6   c-2.851-1.8-8.101-4.35-14.851-4.35c-7.799,0-11.998,4.5-11.998,9.898c0,6,4.199,8.7,13.648,12.45   c12.449,4.649,19.049,10.949,19.049,21.75c0,12.898-10.049,21.898-26.998,21.898c-7.949,0-15.3-2.101-20.398-5.101   L3038.359,418.359z"
   stroke-miterlimit="10"
   stroke-width="3"
   stroke="#000000"
   fill="none" />
	<path
   style="stroke:#000000;stroke-width:1.000000;fill:none"
   d="M 3042.777604,365.092605 l 0.000000,26.382671 M 3042.777604,431.420959 l 0.000000,-10.910544 M 3052.777604,359.041453 l 0.000000,11.470648 M 3052.777604,397.924132 l 0.000000,-14.012242 M 3052.777604,423.169646 l 0.000000,10.007154 M 3062.777604,367.441079 l 0.000000,-9.791111 M 3062.777604,389.370048 l 0.000000,12.867106 M 3062.777604,432.690721 l 0.000000,-10.338345 M 3072.777604,359.052782 l 0.000000,10.636534 M 3072.777604,429.041333 l 0.000000,-34.809510"
   id="path3665" /></g></g>
<eggbot
   id="eggbot3971"
   totaldeltay="0"
   totaldeltax="0"
   lastpathnc="0"
   lastpath="0"
   node="0"
   layer="0"
   serialport="COM4" /></svg>